<svg id="Capa_1" data-name="Capa 1" xmlns="http://www.w3.org/2000/svg" viewBox="0 0 358.15 89.01"><defs><style>.cls-1{fill:#fff;}.cls-2{fill:#e4a11a;}</style></defs><path class="cls-1" d="M40.37,35.41H45.6a11.55,11.55,0,0,1-4.55,5.27,12.38,12.38,0,0,1-15.64-1.79,12.36,12.36,0,0,1-3.73-9,12.16,12.16,0,0,1,3.68-8.82,12.08,12.08,0,0,1,8.9-3.73,12.67,12.67,0,0,1,6.38,1.71,12.12,12.12,0,0,1,5.09,5.72H40.6a8.37,8.37,0,0,0-6.5-3.22,7.48,7.48,0,0,0-5.42,2.36,8.54,8.54,0,0,0-.08,12,7.58,7.58,0,0,0,5.66,2.53A8.42,8.42,0,0,0,40.37,35.41Z"/><path class="cls-1" d="M47.27,30.09a12.19,12.19,0,0,1,3.75-9,12.76,12.76,0,0,1,17.93,0,12.19,12.19,0,0,1,3.75,9A12.06,12.06,0,0,1,69,39a12.81,12.81,0,0,1-18,0A12,12,0,0,1,47.27,30.09Zm4.5,0A8.33,8.33,0,0,0,54.15,36a8.07,8.07,0,0,0,11.66,0,8.6,8.6,0,0,0,0-11.91,8.06,8.06,0,0,0-11.63,0A8.29,8.29,0,0,0,51.77,30.05Z"/><path class="cls-1" d="M76.08,42.17V17.87h5.15L91.32,35.54V17.87h4.5v24.3h-5L80.58,24.5V42.17Z"/><path class="cls-1" d="M98.51,35.21h4.74a3.55,3.55,0,0,0,1.18,2.53,3.06,3.06,0,0,0,2,.72,3.5,3.5,0,0,0,2.37-.85,2.76,2.76,0,0,0,1-2.2,3,3,0,0,0-1.18-2.56,18,18,0,0,0-3.45-1.55,13.46,13.46,0,0,1-3.58-1.84,6.33,6.33,0,0,1-2.2-5.16,6.63,6.63,0,0,1,2-4.92,7,7,0,0,1,5.09-2A7.2,7.2,0,0,1,111.1,19a6.87,6.87,0,0,1,2.62,5.32h-4.6c-.17-1.81-1.08-2.72-2.72-2.72a2.46,2.46,0,0,0-1.79.69A2.37,2.37,0,0,0,103.9,24,2.47,2.47,0,0,0,105,26.21a14.79,14.79,0,0,0,3,1.22q6.38,2.1,6.37,7.48a7.35,7.35,0,0,1-2.49,5.85,8.4,8.4,0,0,1-10.41.2A7.32,7.32,0,0,1,98.51,35.21Z"/><path class="cls-1" d="M117,17.87h4.5V33.3c0,3.44,1.41,5.16,4.21,5.16s4.2-1.72,4.2-5.16V17.87h4.5V33.3A9.82,9.82,0,0,1,133,39.05a8.43,8.43,0,0,1-7.26,3.62,9,9,0,0,1-4.6-1.22,8.41,8.41,0,0,1-2.62-2.27A9.7,9.7,0,0,1,117,33.3Z"/><path class="cls-1" d="M138.56,42.17V17.87h4.5V38h7.42v4.2Z"/><path class="cls-1" d="M155.34,42.17V22.07h-4.5v-4.2h13.53v4.2h-4.53v20.1Z"/><path class="cls-1" d="M166.8,42.17V17.87h4.5v24.3Z"/><path class="cls-1" d="M175.94,42.17V17.87h5.14l10.1,17.67V17.87h4.5v24.3h-5.05L180.44,24.5V42.17Z"/><path class="cls-1" d="M208.92,34v-4.2h15.86v.53a11.56,11.56,0,0,1-3.84,8.73,12.77,12.77,0,0,1-9,3.62,12.91,12.91,0,0,1-9.13-3.58A12,12,0,0,1,198.83,30a11.92,11.92,0,0,1,3.91-9,12.63,12.63,0,0,1,9-3.65,12.88,12.88,0,0,1,7.72,2.5A11.06,11.06,0,0,1,223.57,25h-5.39a7.34,7.34,0,0,0-2.43-2.3,8.25,8.25,0,0,0-10.32,1.68,8.58,8.58,0,0,0-2.1,5.68,8.19,8.19,0,0,0,2.14,5.59,8.06,8.06,0,0,0,6.43,2.82A8,8,0,0,0,219.1,34Z"/><path class="cls-2" d="M236.84,42.17V17.87h7.45a9.22,9.22,0,0,1,5.92,1.64,7.22,7.22,0,0,1,2.85,5.88,7.65,7.65,0,0,1-2.33,5.81,8.49,8.49,0,0,1-4,2l6.6,9h-5.48l-6.47-9.29v9.29Zm4.5-20.1v7.42h2.89a4.22,4.22,0,0,0,3.54-1.38,3.62,3.62,0,0,0,.79-2.36,3.42,3.42,0,0,0-.85-2.33,4.33,4.33,0,0,0-3.48-1.35Z"/><path class="cls-2" d="M254.87,30.09a12.22,12.22,0,0,1,3.74-9,12.77,12.77,0,0,1,17.94,0,12.22,12.22,0,0,1,3.74,9,12.05,12.05,0,0,1-3.72,8.9,12.81,12.81,0,0,1-18,0A12,12,0,0,1,254.87,30.09Zm4.5,0A8.29,8.29,0,0,0,261.75,36a8.07,8.07,0,0,0,11.66,0,8.63,8.63,0,0,0,0-11.91,8.06,8.06,0,0,0-11.63,0A8.29,8.29,0,0,0,259.37,30.05Z"/><path class="cls-2" d="M282.46,30.09a12.19,12.19,0,0,1,3.75-9,12.76,12.76,0,0,1,17.93,0,12.18,12.18,0,0,1,3.74,9,12.05,12.05,0,0,1-3.72,8.9,12.81,12.81,0,0,1-18,0A12,12,0,0,1,282.46,30.09Zm4.5,0A8.29,8.29,0,0,0,289.34,36,8.07,8.07,0,0,0,301,36a8.63,8.63,0,0,0,0-11.91,8.06,8.06,0,0,0-11.63,0A8.29,8.29,0,0,0,287,30.05Z"/><path class="cls-2" d="M311,42.17V17.87h6.24l6.47,18.39h.07l6.4-18.39h6.24v24.3H332V23.94h-.1l-6.23,18.23H321.8l-6.26-18.23V42.17Z"/><path class="cls-1" d="M355.5,54.05H3.6V3.9H355.5Zm-347.9-4H351.5V7.9H7.6Z"/><path class="cls-1" d="M51.23,70.94h1.53l3.61,12.82,3.52-12.82h1.39l3.52,12.8,3.61-12.8h1.53l-4.2,14.7H63.81l-3.23-12-3.24,12H55.41Z"/><path class="cls-1" d="M71.65,70.94h8v1.33H73.12v5.29h6.35V78.9H73.12v5.41h6.57v1.33h-8Z"/><path class="cls-1" d="M87.83,70.94h2.26l5.38,12.51,5.35-12.51h2.27v14.7h-1.47V72.57L96.08,85.64H94.83L89.3,72.57V85.64H87.83Z"/><path class="cls-1" d="M111.17,70.94h1.63l6.31,14.7h-1.6l-2.12-4.93h-6.85l-2.13,4.93h-1.59Zm3.64,8.44L112,72.63l-2.87,6.75Z"/><path class="cls-1" d="M120.84,70.94h1.47V79.4l6.79-8.46H131l-5.81,7.16L131,85.64h-1.83l-4.92-6.36-1.91,2.35v4h-1.47Z"/><path class="cls-1" d="M132.6,70.94h8v1.33h-6.57v5.29h6.35V78.9h-6.35v5.41h6.57v1.33h-8Z"/><path class="cls-1" d="M152.42,80.73l-5.11-9.79h1.61l4.24,8.26,4.24-8.26H159l-5.11,9.79v4.91h-1.48Z"/><path class="cls-1" d="M175.47,78.26a7.34,7.34,0,0,1-1.05,3.84,7.83,7.83,0,0,1-6.73,3.8,7.59,7.59,0,0,1-3.83-1A7.78,7.78,0,0,1,161,82.14a7,7,0,0,1-1.08-3.78A7.34,7.34,0,0,1,161,74.52a7.65,7.65,0,0,1,2.84-2.78,7.91,7.91,0,0,1,10.59,2.73A7.12,7.12,0,0,1,175.47,78.26Zm-7.76-6.15a6.37,6.37,0,0,0-3.16.85,6.21,6.21,0,0,0-2.3,2.28,6,6,0,0,0-.85,3.12,5.7,5.7,0,0,0,.87,3.07,6.39,6.39,0,0,0,2.33,2.23,6.29,6.29,0,0,0,8.91-3,6.11,6.11,0,0,0,.49-2.41,5.73,5.73,0,0,0-.87-3.07,6.44,6.44,0,0,0-5.42-3.06Z"/><path class="cls-1" d="M179.32,70.94v8.93A5.85,5.85,0,0,0,180,83a3.22,3.22,0,0,0,1.24,1.13,3.54,3.54,0,0,0,1.63.4,3.5,3.5,0,0,0,1.53-.36,3,3,0,0,0,1.18-1,3.66,3.66,0,0,0,.65-1.45,9.13,9.13,0,0,0,.16-1.84V70.94h1.48v8.93a11.28,11.28,0,0,1-.22,2.32,4.54,4.54,0,0,1-.88,1.84,4.44,4.44,0,0,1-1.71,1.38,5,5,0,0,1-2.19.49,5.23,5.23,0,0,1-2.14-.45,4.63,4.63,0,0,1-2.44-2.58,5.82,5.82,0,0,1-.35-1.41,13,13,0,0,1-.09-1.59V70.94Z"/><path class="cls-1" d="M190.89,70.94h3.5a19.82,19.82,0,0,1,2.37.12,5,5,0,0,1,1.81.6,4.41,4.41,0,0,1,1.7,1.7,4.9,4.9,0,0,1,.59,2.37,4.37,4.37,0,0,1-.58,2.19,4.49,4.49,0,0,1-1.58,1.6,4.38,4.38,0,0,1-2.18.63l4.14,5.49h-1.83l-5-6.66h.43c.72,0,1.33,0,1.83-.07a5,5,0,0,0,1.38-.33A3.24,3.24,0,0,0,199,74.12,3.11,3.11,0,0,0,198,73a3.16,3.16,0,0,0-1.41-.58,12.55,12.55,0,0,0-1.92-.12h-2.33V85.64h-1.47Z"/><path class="cls-1" d="M208.48,70.94H210V84.31h6.1v1.33h-7.57Z"/><path class="cls-1" d="M217.67,70.94h1.48v14.7h-1.48Z"/><path class="cls-1" d="M222.17,70.94h7.46v1.33h-6v5.31h5.78v1.34h-5.78v6.72h-1.47Z"/><path class="cls-1" d="M231.83,70.94h8v1.33H233.3v5.29h6.35V78.9H233.3v5.41h6.57v1.33h-8Z"/><path class="cls-1" d="M248,70.94h8.05v1.33h-6.57v5.29h6.35V78.9h-6.35v5.41h6.57v1.33H248Z"/><path class="cls-1" d="M263.73,70.94h1.63l6.31,14.7h-1.6l-2.13-4.93H261.1L259,85.64h-1.59Zm3.64,8.44-2.83-6.75-2.86,6.75Z"/><path class="cls-1" d="M273.9,81.52a3.05,3.05,0,0,0,.41,1.49,2.94,2.94,0,0,0,1.05,1.08,2.91,2.91,0,0,0,1.48.4,3.26,3.26,0,0,0,1.53-.37,3,3,0,0,0,1.11-1,2.86,2.86,0,0,0,.41-1.5,2.6,2.6,0,0,0-.28-1.15,2.65,2.65,0,0,0-.74-.94,3.48,3.48,0,0,0-1-.57c-.34-.13-.77-.26-1.29-.4s-1.13-.32-1.52-.47A3.61,3.61,0,0,1,274,77.4a3.41,3.41,0,0,1-1.23-2.74,3.81,3.81,0,0,1,2.07-3.46,4.53,4.53,0,0,1,2.11-.5,4.17,4.17,0,0,1,2,.52,3.93,3.93,0,0,1,2,3.46h-1.53a2.85,2.85,0,0,0-.41-1.33,2.49,2.49,0,0,0-.94-.91,2.69,2.69,0,0,0-1.34-.33,2.49,2.49,0,0,0-1.28.35,2.56,2.56,0,0,0-.91.94,2.48,2.48,0,0,0-.34,1.28,2,2,0,0,0,.4,1.32,2.63,2.63,0,0,0,1,.76,12.14,12.14,0,0,0,1.52.51c.77.21,1.34.39,1.71.53a3.88,3.88,0,0,1,1.11.72,3.71,3.71,0,0,1,1,1.38,4.23,4.23,0,0,1,.36,1.71,4,4,0,0,1-.62,2.17,4.31,4.31,0,0,1-1.65,1.55,4.47,4.47,0,0,1-2.21.57,4.71,4.71,0,0,1-2.29-.56,4.23,4.23,0,0,1-2.27-3.82Z"/><path class="cls-1" d="M283.31,70.94h1.47v14.7h-1.47Z"/><path class="cls-1" d="M287.81,70.94h8v1.33h-6.57v5.29h6.35V78.9h-6.35v5.41h6.57v1.33h-8Z"/><path class="cls-1" d="M298.47,70.94H302a20.12,20.12,0,0,1,2.38.12,5,5,0,0,1,1.8.6,4.34,4.34,0,0,1,1.7,1.7,4.9,4.9,0,0,1,.59,2.37,4.27,4.27,0,0,1-.58,2.19,4.47,4.47,0,0,1-3.76,2.23l4.14,5.49h-1.83l-5-6.66h.44c.71,0,1.32,0,1.82-.07a5,5,0,0,0,1.38-.33,3.24,3.24,0,0,0,1.54-4.46,3.31,3.31,0,0,0-2.41-1.73,12.55,12.55,0,0,0-1.92-.12h-2.33V85.64h-1.47Z"/></svg>